# xmcd
#
# Track frame offsets:
#	150
#	15202
#	28142
#	40526
#	52306
#	69498
#	83190
#	94793
#	105815
#	121799
#	136643
#	151230
#	169661
#	190131
#
# Disc length: 2776 seconds
#
# Revision: 0
# Processed by: cddbd v1.5.2PL0 Copyright (c) Steve Scherf et al.
# Submitted via: EasyCDDAExtractor 12.0.0.1
#
DISCID=9e0ad60e
DTITLE=Various Artist - Rodeio Show
DYEAR=1997
DGENRE=Sertanejo
TTITLE0=Teodoro E Sampaio - Cantaram Minha Vizinha
TTITLE1=Léo Canhoto E Robertinho - Cachaça Nele
TTITLE2=Gilberto E Gilmar - Você Não Vale Nada
TTITLE3=Teodoro E Sampaio - O Gavião
TTITLE4=Bob E Robson - Vespeira
TTITLE5=João Mulato E Pardinho - Pagode Do Tubarão
TTITLE6=Léo Canhoto E Robertinho - Põe Tudo
TTITLE7=Teodoro E Sampaio - Cheira Chumbo
TTITLE8=Renê E Ronaldo - Caminhão
TTITLE9=João Mineiro E Mariano - O Firin Fin Fin
TTITLE10=João Mulato E Pardinho - Prisioneiro Feliz
TTITLE11=Renê E Ronaldo - De Coração Pra Coração
TTITLE12=Paulo César E Adriano - O Cowboy
TTITLE13=Lourenço E Lourival - Meu Reino Encantado
EXTD=
EXTT0=
EXTT1=
EXTT2=
EXTT3=
EXTT4=
EXTT5=
EXTT6=
EXTT7=
EXTT8=
EXTT9=
EXTT10=
EXTT11=
EXTT12=
EXTT13=
PLAYORDER=
